# xmcd
#
# Track frame offsets:
#	150
#	14940
#	34219
#	52512
#	67656
#	85691
#	97894
#	110145
#	112288
#	129616
#	146219
#	170052
#	190424
#	205869
#	220485
#	231663
#	252050
#	266093
#
# Disc length: 3613 seconds
#
# Revision: 1
# Processed by: cddbd v1.5.1PL0 Copyright (c) Steve Scherf et al.
# Submitted via: EasyCDDAExtractor 7.1.0.1
#
DISCID=160e1b12
DTITLE=Jolly Jumper and Big Moe - Bootleggers Blues
DYEAR=1900
DGENRE=Blues
TTITLE0=Everybody Is Talking
TTITLE1=Prison Bound Blues
TTITLE2=Bootlegers Blues
TTITLE3=Nervous
TTITLE4=Love At First Sight
TTITLE5=Age Is Getting Me
TTITLE6=You Just As Well Let Her Go
TTITLE7=Tribute To Bongo Joe
TTITLE8=Sail Away
TTITLE9=Hey Laudy Mama-France Blues
TTITLE10=Soap And Water Blues
TTITLE11=Midnight Special
TTITLE12=Too Long
TTITLE13=Minglewod Blues
TTITLE14=Cocaine Habit Blues
TTITLE15=Down At My Country Farm
TTITLE16=William Tucker´S Blues
TTITLE17=The 78 Rpm Mysterious Lost Tape From Too Long Ago
EXTD=
EXTT0=
EXTT1=
EXTT2=
EXTT3=
EXTT4=
EXTT5=
EXTT6=
EXTT7=
EXTT8=
EXTT9=
EXTT10=
EXTT11=
EXTT12=
EXTT13=
EXTT14=
EXTT15=
EXTT16=
EXTT17=
PLAYORDER=
